name Walk4.mot
datacolumns 19
datarows 25
range 1.86500000 1.98500000
endheader

                time	   L_ground_force_vx	   L_ground_force_vy	   L_ground_force_vz	   L_ground_force_px	   L_ground_force_py	   L_ground_force_pz	   R_ground_force_vx	   R_ground_force_vy	   R_ground_force_vz	   R_ground_force_px	   R_ground_force_py	   R_ground_force_pz	   L_ground_torque_x	   L_ground_torque_y	   L_ground_torque_z	   R_ground_torque_x	   R_ground_torque_y	   R_ground_torque_z	
          1.86500000	          0.00000000	          0.00000000	         -0.00000000	         -0.00000000	          0.00000000	         -0.00000000	          4.39720161	         13.60329765	          2.58014633	          0.12166353	          0.00000000	          0.03500750	          0.00000000	         -0.00000000	          0.00000000	          0.00000000	         -1.92486747	          0.00000000	
          1.87000000	          0.00000000	          0.00000000	         -0.00000000	         -0.00000000	          0.00000000	         -0.00000000	          2.09253766	          4.71314987	          2.12302726	          0.09168441	          0.00000000	          0.02608648	          0.00000000	         -0.00000000	          0.00000000	          0.00000000	         -1.21257262	          0.00000000	
          1.87500000	          0.00000000	          0.00000000	         -0.00000000	         -0.00000000	          0.00000000	         -0.00000000	          0.44910689	         -1.36068285	          1.66197987	          0.06520826	          0.00000000	          0.01830247	          0.00000000	         -0.00000000	          0.00000000	          0.00000000	         -0.65989190	          0.00000000	
          1.88000000	          0.00000000	          0.00000000	         -0.00000000	         -0.00000000	          0.00000000	         -0.00000000	         -0.64031236	         -5.14810056	          1.23487660	          0.04307243	          0.00000000	          0.01186323	          0.00000000	         -0.00000000	          0.00000000	          0.00000000	         -0.25327899	          0.00000000	
          1.88500000	          0.00000000	          0.00000000	         -0.00000000	         -0.00000000	          0.00000000	         -0.00000000	         -1.28829485	         -7.16974565	          0.86331974	          0.02547064	          0.00000000	          0.00679563	          0.00000000	         -0.00000000	          0.00000000	          0.00000000	          0.02750530	          0.00000000	
          1.89000000	          0.00000000	          0.00000000	         -0.00000000	         -0.00000000	          0.00000000	         -0.00000000	         -1.60194492	         -7.89914730	          0.55676937	          0.01216853	          0.00000000	          0.00300843	          0.00000000	         -0.00000000	          0.00000000	          0.00000000	          0.20539149	          0.00000000	
          1.89500000	          0.00000000	          0.00000000	         -0.00000000	         -0.00000000	          0.00000000	         -0.00000000	         -1.67638816	         -7.74217140	          0.31615083	          0.00267577	          0.00000000	          0.00034184	          0.00000000	         -0.00000000	          0.00000000	          0.00000000	          0.30322247	          0.00000000	
          1.90000000	          0.00000000	          0.00000000	         -0.00000000	         -0.00000000	          0.00000000	         -0.00000000	         -1.59154514	         -7.02919366	          0.13684311	         -0.00362338	          0.00000000	         -0.00139523	          0.00000000	         -0.00000000	          0.00000000	          0.00000000	          0.34197836	          0.00000000	
          1.90500000	         -0.00000000	          0.00000000	         -0.00000000	         -0.00000000	          0.00000000	         -0.00000000	         -1.41126497	         -6.01605062	          0.01103391	         -0.00737634	          0.00000000	         -0.00239883	          0.00000000	         -0.00000000	          0.00000000	          0.00000000	          0.33978540	          0.00000000	
          1.91000000	         -0.00000000	         -0.00000000	         -0.00000000	         -0.00000000	          0.00000000	         -0.00000000	         -1.18404080	         -4.89054475	         -0.07051774	         -0.00919966	          0.00000000	         -0.00285270	          0.00000000	         -0.00000000	          0.00000000	          0.00000000	          0.31150618	          0.00000000	
          1.91500000	         -0.00000000	         -0.00000000	         -0.00000000	         -0.00000000	          0.00000000	         -0.00000000	         -0.94468303	         -3.78199668	         -0.11723813	         -0.00964133	          0.00000000	         -0.00291815	          0.00000000	         -0.00000000	          0.00000000	          0.00000000	          0.26873490	          0.00000000	
          1.92000000	         -0.00000000	         -0.00000000	         -0.00000000	         -0.00000000	          0.00000000	         -0.00000000	         -0.71647452	         -2.77199607	         -0.13792690	         -0.00916206	          0.00000000	         -0.00272933	          0.00000000	         -0.00000000	          0.00000000	          0.00000000	          0.22005282	          0.00000000	
          1.92500000	         -0.00000000	         -0.00000000	         -0.00000000	         -0.00000000	          0.00000000	         -0.00000000	         -0.51346436	         -1.90507087	         -0.14028585	         -0.00813010	          0.00000000	         -0.00239238	          0.00000000	         -0.00000000	          0.00000000	          0.00000000	          0.17143043	          0.00000000	
          1.93000000	         -0.00000000	         -0.00000000	         -0.00000000	          0.00000000	          0.00000000	          0.00000000	         -0.34266905	         -1.19846047	         -0.13070369	         -0.00682534	          0.00000000	         -0.00198710	          0.00000000	          0.00000000	          0.00000000	          0.00000000	          0.12669176	          0.00000000	
          1.93500000	         -0.00000000	         -0.00000000	          0.00000000	          0.00000000	          0.00000000	          0.00000000	         -0.20604035	         -0.65054117	         -0.11422175	         -0.00544881	          0.00000000	         -0.00157004	          0.00000000	          0.00000000	          0.00000000	          0.00000000	          0.08798193	          0.00000000	
          1.94000000	         -0.00000000	         -0.00000000	          0.00000000	          0.00000000	          0.00000000	          0.00000000	         -0.10212771	         -0.24772120	         -0.09461865	         -0.00413514	          0.00000000	         -0.00117842	          0.00000000	          0.00000000	          0.00000000	          0.00000000	          0.05619976	          0.00000000	
          1.94500000	         -0.00000000	         -0.00000000	          0.00000000	          0.00000000	          0.00000000	          0.00000000	         -0.02741348	          0.03019120	         -0.07456436	         -0.00296567	          0.00000000	         -0.00083408	          0.00000000	          0.00000000	          0.00000000	          0.00000000	          0.03137374	          0.00000000	
          1.95000000	         -0.00000000	         -0.00000000	          0.00000000	          0.00000000	          0.00000000	          0.00000000	          0.02266739	          0.20602327	         -0.05580680	         -0.00198116	          0.00000000	         -0.00054730	          0.00000000	          0.00000000	          0.00000000	          0.00000000	          0.01297202	          0.00000000	
          1.95500000	         -0.00000000	         -0.00000000	          0.00000000	          0.00000000	          0.00000000	          0.00000000	          0.05299056	          0.30248703	         -0.03936430	         -0.00119313	          0.00000000	         -0.00032011	          0.00000000	          0.00000000	          0.00000000	          0.00000000	          0.00014542	          0.00000000	
          1.96000000	         -0.00000000	         -0.00000000	          0.00000000	          0.00000000	          0.00000000	          0.00000000	          0.06824531	          0.34042430	         -0.02570680	         -0.00059342	          0.00000000	         -0.00014909	          0.00000000	          0.00000000	          0.00000000	          0.00000000	         -0.00809153	          0.00000000	
          1.96500000	         -0.00000000	         -0.00000000	          0.00000000	          0.00000000	          0.00000000	          0.00000000	          0.07263050	          0.33782929	         -0.01491541	         -0.00016190	          0.00000000	         -0.00002764	          0.00000000	          0.00000000	          0.00000000	          0.00000000	         -0.01273378	          0.00000000	
          1.97000000	         -0.00000000	         -0.00000000	          0.00000000	          0.00000000	          0.00000000	          0.00000000	          0.06969845	          0.30944695	         -0.00681547	          0.00012763	          0.00000000	          0.00005244	          0.00000000	          0.00000000	          0.00000000	          0.00000000	         -0.01470368	          0.00000000	
          1.97500000	         -0.00000000	         -0.00000000	          0.00000000	          0.00000000	          0.00000000	          0.00000000	          0.06230588	          0.26677239	         -0.00108212	          0.00030320	          0.00000000	          0.00009964	          0.00000000	          0.00000000	          0.00000000	          0.00000000	         -0.01480406	          0.00000000	
          1.98000000	          0.00000000	          0.00000000	          0.00000000	          0.00000000	          0.00000000	          0.00000000	          0.05263752	          0.21830755	          0.00268015	          0.00039181	          0.00000000	          0.00012203	          0.00000000	          0.00000000	          0.00000000	          0.00000000	         -0.01369760	          0.00000000	
          1.98500000	          0.00000000	          0.00000000	          0.00000000	          0.00000000	          0.00000000	          0.00000000	          0.04227440	          0.16996250	          0.00488086	          0.00041765	          0.00000000	          0.00012674	          0.00000000	          0.00000000	          0.00000000	          0.00000000	         -0.01190474	          0.00000000	
